<?xml version="1.0" encoding="UTF-8"?>
<svg xmlns="http://www.w3.org/2000/svg" viewBox="0 -960 960 960" fill="currentColor"><path d="M610-190.77V-250h-87.69q-29.92 0-51.12-21.19T450-322.31V-650H350v59.23q0 25.31-17.73 43.04T289.23-530H150.77q-25.31 0-43.04-17.73T90-590.77v-178.46q0-25.31 17.73-43.04T150.77-830h138.46q25.31 0 43.04 17.73T350-769.23V-710h260v-59.23q0-25.31 17.73-43.04T670.77-830h138.46q25.31 0 43.04 17.73T870-769.23v178.46q0 25.31-17.73 43.04T809.23-530H670.77q-25.31 0-43.04-17.73T610-590.77V-650H510v327.69q0 5.39 3.46 8.85t8.85 3.46H610v-59.23q0-25.31 17.73-43.04T670.77-430h138.46q25.31 0 43.04 17.73T870-369.23v178.46q0 25.31-17.73 43.04T809.23-130H670.77q-25.31 0-43.04-17.73T610-190.77M150-770v180zm520 400v180zm0-400v180zm0 180h140v-180H670zm0 400h140v-180H670zM150-590h140v-180H150z"/></svg>