<?xml version="1.0" encoding="UTF-8"?>
<svg xmlns="http://www.w3.org/2000/svg" viewBox="0 0 32 32"><path d="M29 4H3a3 3 0 00-3 3v16a3 3 0 003 3h9v3h-1.5a.5.5 0 00-.5.5c0 .28.22.5.5.5h11a.5.5 0 00.5-.5.5.5 0 00-.5-.5H20v-3h9a3 3 0 003-3V7a3 3 0 00-3-3M19 29h-6v-3h6zm12-6a2 2 0 01-2 2H3a2 2 0 01-2-2V7c0-1.1.9-2 2-2h26a2 2 0 012 2zM25.8 9.03a1.5 1.5 0 00-1.71.97H18V9h-4v1H7.91a1.5 1.5 0 100 1H14v.22c-4.39.9-7.75 4.66-7.99 9.25a.5.5 0 00.5.53.5.5 0 00.5-.47A9 9 0 0114 12.24V13h4v-.76a9 9 0 016.99 8.29c.01.27.23.47.49.47a.5.5 0 00.5-.53 10 10 0 00-7.99-9.25V11h6.09a1.5 1.5 0 101.72-1.97M6.5 11c-.28 0-.5-.22-.5-.5s.22-.5.5-.5.5.22.5.5-.22.5-.5.5M17 12h-2v-2h2zm8.5-1c-.28 0-.5-.22-.5-.5s.22-.5.5-.5.5.22.5.5-.22.5-.5.5"/></svg>