<?xml version="1.0" encoding="UTF-8"?>
<svg xmlns="http://www.w3.org/2000/svg" viewBox="0 -960 960 960" fill="currentColor"><path d="M212.31-100Q182-100 161-121t-21-51.31v-535.38Q140-738 161-759t51.31-21h55.38v-53.85q0-13.15 8.81-21.96t21.96-8.8q13.16 0 21.96 8.8t8.81 21.96V-780h303.08v-54.61q0-12.77 8.61-21.39 8.62-8.61 21.39-8.61t21.38 8.61 8.62 21.39V-780h55.38Q778-780 799-759t21 51.31v535.38Q820-142 799-121t-51.31 21zm0-60h535.38q4.62 0 8.46-3.85 3.85-3.84 3.85-8.46v-375.38H200v375.38q0 4.62 3.85 8.46 3.84 3.85 8.46 3.85M200-607.69h560v-100q0-4.62-3.85-8.46-3.84-3.85-8.46-3.85H212.31q-4.62 0-8.46 3.85-3.85 3.84-3.85 8.46zm0 0V-720zm280 210.77q-14.69 0-25.04-10.35t-10.34-25.04q0-14.69 10.34-25.04T480-467.69t25.04 10.34q10.34 10.35 10.34 25.04t-10.34 25.04q-10.35 10.35-25.04 10.35m-185.04-10.35q-10.34-10.34-10.34-25.04t10.34-25.04q10.35-10.34 25.04-10.34t25.04 10.34q10.34 10.35 10.34 25.04t-10.34 25.04q-10.35 10.35-25.04 10.35t-25.04-10.35M640-396.92q-14.69 0-25.04-10.35t-10.34-25.04 10.34-25.04q10.35-10.34 25.04-10.34t25.04 10.34q10.34 10.35 10.34 25.04t-10.34 25.04T640-396.92M480-240q-14.69 0-25.04-10.35t-10.34-25.03q0-14.7 10.34-25.04T480-310.77t25.04 10.35q10.34 10.34 10.34 25.04t-10.34 25.03Q494.69-240 480-240m-185.04-10.35q-10.34-10.34-10.34-25.03t10.34-25.04q10.35-10.35 25.04-10.35t25.04 10.35q10.34 10.34 10.34 25.04t-10.34 25.03Q334.69-240 320-240t-25.04-10.35M640-240q-14.69 0-25.04-10.35t-10.34-25.03q0-14.7 10.34-25.04T640-310.77t25.04 10.35q10.34 10.34 10.34 25.04t-10.34 25.03Q654.69-240 640-240"/></svg>