<?xml version="1.0" encoding="UTF-8"?>
<svg xmlns="http://www.w3.org/2000/svg" viewBox="0 -960 960 960" fill="#e3e3e3"><path d="m423.23-394.15-92.92-92.93q-8.31-8.3-20.89-8.5t-21.27 8.5-8.69 21.08 8.69 21.08l109.77 109.77q10.85 10.84 25.31 10.84t25.31-10.84l222.54-222.54q8.3-8.31 8.5-20.89t-8.5-21.27-21.08-8.69-21.08 8.69zM480.07-100q-78.84 0-148.21-29.92t-120.68-81.21-81.25-120.63T100-479.93t29.92-148.21 81.21-120.68 120.63-81.25Q401.1-860 479.93-860q78.84 0 148.21 29.92t120.68 81.21 81.25 120.63Q860-558.9 860-480.07q0 78.84-29.92 148.21t-81.21 120.68-120.63 81.25T480.07-100m-.07-60q134 0 227-93t93-227-93-227-227-93-227 93-93 227 93 227 227 93m0-320"/></svg>