<?xml version="1.0" encoding="UTF-8"?>
<svg xmlns="http://www.w3.org/2000/svg" viewBox="0 -960 960 960" fill="currentColor"><path d="M558.77-357.35q34.61-26.57 50.46-67.73H350.77q15.85 41.16 50.39 67.73t78.77 26.58 78.84-26.58M424.81-496.82Q440-512.1 440-533.94t-15.28-37.02q-15.29-15.19-37.12-15.19t-37.02 15.28-15.19 37.11 15.28 37.03 37.11 15.19 37.03-15.28m184.61 0q15.19-15.28 15.19-37.12t-15.28-37.02-37.11-15.19-37.03 15.28T520-533.76q0 21.84 15.28 37.03t37.12 15.19 37.02-15.28M315-690.15l108.15-141.93q10.77-14.41 25.58-21.16T480-860t31.27 6.76q14.81 6.75 25.58 21.16L645-690.15l165.38 55.84q23.7 7.62 36.96 26.87 13.27 19.26 13.27 42.54 0 10.75-3.14 21.43T847.15-523L739.46-373.54l4 158.62q1 31.59-20.83 53.25Q700.81-140 671.77-140q-.85 0-20.08-2.62L480-191.85l-171.69 49.23q-5 2-10.32 2.31t-9.76.31q-29.31 0-51-21.67-21.69-21.66-20.69-53.25l4-159.62L113.46-523q-7.18-9.83-10.32-20.55T100-565q0-22.63 13.18-42.09t36.82-27.6zm37.08 51.69-182.85 60.92q-5.77 1.92-7.88 7.89t1.73 10.96l117.84 166.31-4.38 178.69q-.39 6.54 4.61 10.38t11.16 1.93L480-254.08l187.69 53.7q6.16 1.92 11.16-1.93t4.61-10.38l-4.38-179.69 117.84-164.31q3.85-5 1.73-10.96-2.11-5.97-7.88-7.89l-182.85-62.92-118.3-156.15q-3.47-5.01-9.62-5.01t-9.62 5.01zM480-499.62"/></svg>