<?xml version="1.0" encoding="UTF-8"?>
<svg xmlns="http://www.w3.org/2000/svg" viewBox="0 0 20 20">
  <path d="M10 0c5.52 0 10 4.59 10 10.25 0 4.53-2.86 8.37-6.83 9.73-.51.1-.69-.22-.69-.49l.01-2.81c0-.96-.32-1.58-.68-1.9 2.23-.26 4.57-1.12 4.57-5.06a4 4 0 00-1.03-2.75c.1-.26.45-1.31-.1-2.72 0 0-.84-.27-2.75 1.05a9.4 9.4 0 00-5 0C5.59 3.98 4.75 4.25 4.75 4.25a3.8 3.8 0 00-.1 2.72 4 4 0 00-1.03 2.75c0 3.93 2.33 4.81 4.55 5.06-.28.26-.54.71-.63 1.38-.57.26-2.02.71-2.91-.86 0 0-.53-.98-1.53-1.05 0 0-.98-.02-.07.62 0 0 .65.32 1.11 1.5 0 0 .59 1.83 3.37 1.21l.01 1.91c0 .27-.18.59-.68.49A10.2 10.2 0 010 10.25C0 4.59 4.48 0 10 0" fill="currentColor" fill-rule="evenodd"/>
</svg>