<?xml version="1.0" encoding="UTF-8"?>
<svg xmlns="http://www.w3.org/2000/svg" viewBox="0 0 48 48" fill="currentColor">
  <path d="M31.68 34.89a13 13 0 01-7.25 2.07 12.8 12.8 0 01-12.04-8.85v-.02q-.66-1.94-.68-4.08c-.02-2.14.25-2.79.68-4.08a12.8 12.8 0 0112.04-8.85 11.7 11.7 0 018.23 3.21l6.16-6.16a20.6 20.6 0 00-14.39-5.61c-8.4 0-15.66 4.83-19.19 11.86a21.2 21.2 0 000 19.28v.02a21.5 21.5 0 0019.19 11.84c5.8 0 10.67-1.92 14.23-5.2 4.07-3.75 6.41-9.26 6.41-15.81q0-2.28-.39-4.4H24.43v8.33H36a10 10 0 01-4.32 6.47Z"/>
</svg>