<?xml version="1.0" encoding="UTF-8"?>
<svg xmlns="http://www.w3.org/2000/svg" viewBox="0 -960 960 960" fill="currentColor"><path d="M240-200h133.85v-201.54q0-15.36 10.39-25.76 10.4-10.39 25.76-10.39h140q15.36 0 25.76 10.39 10.39 10.4 10.39 25.76V-200H720v-353.85q0-3.07-1.35-5.57-1.34-2.5-3.65-4.43L487.31-735q-3.08-2.69-7.31-2.69t-7.31 2.69L245-563.85q-2.31 1.93-3.65 4.43-1.35 2.5-1.35 5.57zm-60 0v-353.85q0-17.17 7.68-32.53 7.69-15.37 21.24-25.31l227.7-171.54q18.95-14.46 43.32-14.46t43.44 14.46l227.7 171.54q13.55 9.94 21.24 25.31t7.68 32.53V-200q0 24.54-17.73 42.27T720-140H562.31q-15.37 0-25.76-10.4t-10.4-25.76v-201.53h-92.3v201.53q0 15.37-10.4 25.76T397.69-140H240q-24.54 0-42.27-17.73T180-200m300-269.23"/></svg>