<?xml version="1.0" encoding="UTF-8"?>
<svg xmlns="http://www.w3.org/2000/svg" viewBox="0 -960 960 960" fill="currentColor"><path d="M172.31-180Q142-180 121-201t-21-51.31v-455.38Q100-738 121-759t51.31-21h615.38Q818-780 839-759t21 51.31v455.38Q860-222 839-201t-51.31 21zM800-662.31 499.46-469.92q-4.61 2.61-9.54 4.11t-9.92 1.5-9.92-1.5-9.54-4.11L160-662.31v410q0 5.39 3.46 8.85t8.85 3.46h615.38q5.39 0 8.85-3.46t3.46-8.85zM480-520l313.85-200h-627.7zM160-662.31v9.23-45.73 1.19V-720v22.38-1.27 45.81zV-240z"/></svg>