<?xml version="1.0" encoding="UTF-8"?>
<svg xmlns="http://www.w3.org/2000/svg" viewBox="0 -960 960 960" fill="currentColor"><path d="M172.31-180Q142-180 121-201t-21-51.31v-455.38Q100-738 121-759t51.31-21h615.38Q818-780 839-759t21 51.31v455.38Q860-222 839-201t-51.31 21zm317.61-285.81q4.93-1.5 9.54-4.11l286.08-183.16q6.84-4.23 9.69-10.96t1.69-14.19q-.77-13.85-13.54-20.58t-25.76 1.19L480-520 202.38-697.62q-13-7.92-25.57-1.27t-13.73 20.27q-1.16 8.08 1.69 15t9.69 10.54l286.08 183.16q4.61 2.61 9.54 4.11t9.92 1.5 9.92-1.5"/></svg>