<?xml version="1.0" encoding="UTF-8"?>
<svg xmlns="http://www.w3.org/2000/svg" viewBox="0 -960 960 960" fill="currentColor"><path d="M212.31-140Q182-140 161-161t-21-51.31v-535.38Q140-778 161-799t51.31-21h222.3q12.77 0 21.39 8.62 8.61 8.61 8.61 21.38T456-768.62 434.61-760h-222.3q-4.62 0-8.46 3.85-3.85 3.84-3.85 8.46v535.38q0 4.62 3.85 8.46 3.84 3.85 8.46 3.85h535.38q4.62 0 8.46-3.85 3.85-3.84 3.85-8.46v-222.3q0-12.77 8.62-21.39 8.61-8.61 21.38-8.61t21.38 8.61 8.62 21.39v222.3Q820-182 799-161t-51.31 21zM760-717.85 409.85-367.69q-8.31 8.3-20.89 8.5t-21.27-8.5-8.69-21.08 8.69-21.08L717.85-760H590q-12.77 0-21.38-8.62T560-790t8.62-21.38Q577.23-820 590-820h193.84q15.47 0 25.81 10.35Q820-799.31 820-783.84V-590q0 12.77-8.62 21.38T790-560t-21.38-8.62Q760-577.23 760-590z"/></svg>