<?xml version="1.0" encoding="UTF-8"?>
<svg xmlns="http://www.w3.org/2000/svg" viewBox="0 -960 960 960" fill="currentColor"><path d="M777.61-140q-113.07 0-227.19-52.58-114.11-52.58-209.88-148.34-95.38-95.77-147.96-209.7T140-777.61q0-18 12-30.2T182-820h130.46q15.15 0 26.73 9.89t14.73 24.42L376.85-668q2.38 16.38-1 28.15-3.39 11.77-12.16 19.77l-92.38 89.93q22.3 40.84 50.96 77.27 28.65 36.42 62.04 69.57 32.92 32.93 70 61.16t80.08 52.54l89.76-90.54q9.39-9.77 22.74-13.7t27.73-1.92l111.07 22.62q15.15 4 24.73 15.46t9.58 26V-182q0 18-12.19 30t-30.2 12"/></svg>