<?xml version="1.0" encoding="UTF-8"?>
<svg xmlns="http://www.w3.org/2000/svg" viewBox="0 -960 960 960" fill="currentColor"><path d="m138.77-480 122.31 122.31q8.3 8.92 8.61 21.19t-8.61 21.19-21.08 8.92-21.08-8.92L79.54-454.69Q68.69-465.54 68.69-480t10.85-25.31l139.38-139.38q8.93-8.92 21.08-8.92t21.08 8.92T270-623.5t-8.92 21.19zm226.77 295.5q-5.77-11.04-1.92-22.81l176-563.61q3.84-11.77 14.69-17.54t22.61-1.92 17.73 14.69 2.12 22.61l-176.39 564q-3.84 11.77-14.69 17.54t-22.61 1.92-17.54-14.88M821.23-480 698.92-602.31Q690-611.23 690-623.5t8.92-21.19 21.08-8.92q12.15 0 21.08 8.92l139.38 139.38q10.85 10.85 10.85 25.31t-10.85 25.31L741.08-315.31q-8.93 8.92-21.08 8.92t-21.08-8.92T690-336.5t8.92-21.19z"/></svg>