<?xml version="1.0" encoding="UTF-8"?>
<svg xmlns="http://www.w3.org/2000/svg" viewBox="0 -960 960 960" fill="currentColor"><path d="m178.77-479.38 162.31 162.3q8.3 8.31 8.5 20.89t-8.5 21.27-21.08 8.69-21.08-8.69L119.15-454.69q-5.61-5.62-7.92-11.85T108.92-480t2.31-13.46 7.92-11.85l179.77-179.77q8.93-8.92 21.2-9.11t21.57 9.11 9.31 21.39q0 12.07-9.31 21.38zm602.46-1.24-162.31-162.3q-8.3-8.31-8.5-20.89t8.5-21.27 21.08-8.69 21.08 8.69l179.77 179.77q5.61 5.62 7.92 11.85t2.31 13.46-2.31 13.46-7.92 11.85L661.08-274.92q-8.93 8.92-20.89 8.8t-21.27-9.42-9.3-21.38 9.3-21.39z"/></svg>