<?xml version="1.0" encoding="UTF-8"?>
<svg xmlns="http://www.w3.org/2000/svg" viewBox="0 0 24 24" fill="none"><path fill-rule="evenodd" clip-rule="evenodd" d="M3.38 5.08C3 5.62 3 7.22 3 10.42v1.57c0 5.64 4.24 8.38 6.9 9.54.72.31 1.08.47 2.1.47s1.38-.16 2.1-.47c2.66-1.16 6.9-3.9 6.9-9.54v-1.57c0-3.2 0-4.8-.38-5.34-.37-.54-1.88-1.05-4.88-2.08l-.58-.2C13.6 2.27 12.81 2 12 2s-1.6.27-3.16.8l-.58.2c-3 1.03-4.5 1.54-4.88 2.08m6.65 3.89a.75.75 0 00-1.06 0 .75.75 0 000 1.06L10.94 12l-1.97 1.97a.75.75 0 000 1.06c.29.29.77.29 1.06 0L12 13.06l1.97 1.97c.29.29.77.29 1.06 0a.75.75 0 000-1.06L13.06 12l1.97-1.97a.75.75 0 000-1.06.75.75 0 00-1.06 0L12 10.94z" fill="#1C274C"/></svg>