<?xml version="1.0" encoding="UTF-8"?>
<svg xmlns="http://www.w3.org/2000/svg" viewBox="0 -960 960 960" fill="currentColor"><path d="M361.92-338.46 327-199.77q-2.23 9.92-9.54 15.61-7.31 5.7-17.84 5.7-14 0-22.93-11.16t-5.07-24.53l31.07-124.31h-114q-15 0-24.11-11.46t-5.27-25.85q2.62-10.54 10.73-16.61t18.65-6.08h129l40.77-163.08h-114q-15 0-24.11-11.46t-5.27-25.85q2.61-10.53 10.73-16.61 8.11-6.08 18.65-6.08h129l34.93-138.69q2.23-9.92 9.53-15.61 7.31-5.7 17.85-5.7 14 0 22.92 11.16t5.08 24.53l-31.08 124.31h165.39L633-760.23q2.23-9.92 9.54-15.61 7.31-5.7 17.84-5.7 14 0 22.93 11.16t5.07 24.53l-31.07 124.31h114q15 0 24.11 11.46t5.27 25.85q-2.62 10.54-10.73 16.61t-18.65 6.08h-129l-40.77 163.08h114q15 0 24.11 11.46t5.27 25.85q-2.61 10.53-10.73 16.61-8.11 6.08-18.65 6.08h-129l-34.93 138.69q-2.23 9.92-9.53 15.61-7.31 5.7-17.85 5.7-14 0-22.92-11.16t-5.08-24.53l31.08-124.31zm15-60h165.39l40.77-163.08H417.69z"/></svg>