<?xml version="1.0" encoding="UTF-8"?>
<svg xmlns="http://www.w3.org/2000/svg" fill="currentColor" viewBox="0 0 32 32">
  <path d="M22.12 10.04h.02q.32 0 .56.18.18.15.21.4.03.18.03.41l-.01.19v-.01c-.23 2.37-1.2 8.11-1.7 10.77-.21 1.12-.62 1.5-1.02 1.53-.87.08-1.53-.57-2.37-1.13-1.32-.86-2.06-1.4-3.34-2.25-1.48-.97-.52-1.51.32-2.38.22-.23 4.05-3.71 4.13-4.03l.01-.06a.3.3 0 00-.08-.2.4.4 0 00-.31-.03q-.2.04-6.32 4.17-.69.54-1.62.6h-.01q-1.29-.16-2.4-.57l.07.02c-.94-.31-1.68-.47-1.62-.98q.05-.4 1.11-.83 6.55-2.85 8.73-3.76a23 23 0 015.43-2.01l.16-.03zm-6.19-9.02a15.06 15.06 0 10.07 0z"/>
</svg>