<?xml version="1.0" encoding="UTF-8"?>
<svg xmlns="http://www.w3.org/2000/svg" viewBox="0 -960 960 960" fill="currentColor"><path d="M212.31-140q-29.92 0-51.12-21.19T140-212.31v-535.38q0-29.92 21.19-51.12T212.31-820h535.38q29.92 0 51.12 21.19T820-747.69v535.38q0 29.92-21.19 51.12T747.69-140zM510-450v250h237.69q5.39 0 8.85-3.46t3.46-8.85V-450zm0-60h250v-237.69q0-5.39-3.46-8.85t-8.85-3.46H510zm-60 0v-250H212.31q-5.39 0-8.85 3.46t-3.46 8.85V-510zm0 60H200v237.69q0 5.39 3.46 8.85t8.85 3.46H450z"/></svg>